# xmcd
#
# Track frame offsets: 
#        150
#        15345
#        31575
#        47202
#        59521
#        85656
#        105351
#        127138
#        146418
#        159947
#        172940
#        188864
#        219710
#        234024
#        254913
#
# Disc length: 3688 seconds
#
# Revision: 1
# Processed by: cddbd v1.5.2PL0 Copyright (c) Steve Scherf et al.
# Submitted via: ExactAudioCopy v0.99pb4
#
DISCID=bf0e660f
DTITLE=Magic Slim - The Essential Magic Slim
DYEAR=2007
DGENRE=Blues
TTITLE0=Before you accuse me
TTITLE1=Mind your own business
TTITLE2=Think
TTITLE3=Scufflin'
TTITLE4=Crazy Woman
TTITLE5=Mustang Sally
TTITLE6=Goin' to MIssissippi
TTITLE7=What's wrong
TTITLE8=Playin' with my mind
TTITLE9=Black Tornado
TTITLE10=Down in Virginia
TTITLE11=Please don't dog me
TTITLE12=Jealous Man
TTITLE13=How many more years
TTITLE14=Get your business straight
EXTD=
EXTT0=
EXTT1=
EXTT2=
EXTT3=
EXTT4=
EXTT5=
EXTT6=
EXTT7=
EXTT8=
EXTT9=
EXTT10=
EXTT11=
EXTT12=
EXTT13=
EXTT14=
PLAYORDER=
